<mxfile host="app.diagrams.net" agent="Mozilla/5.0 (Windows NT 10.0; Win64; x64) AppleWebKit/537.36 (KHTML, like Gecko) Chrome/131.0.0.0 Safari/537.36" version="25.0.3">
  <diagram name="Pagina-1" id="_7voP1q2-VhUuI4TfC8y">
    <mxGraphModel dx="1048" dy="522" grid="1" gridSize="10" guides="1" tooltips="1" connect="1" arrows="1" fold="1" page="1" pageScale="1" pageWidth="827" pageHeight="1169" math="0" shadow="0">
      <root>
        <mxCell id="0" />
        <mxCell id="1" parent="0" />
        <mxCell id="pECEoWiWathn1sbl9UoU-1" value="Admin" style="shape=umlActor;verticalLabelPosition=bottom;verticalAlign=top;html=1;" vertex="1" parent="1">
          <mxGeometry x="150" y="290" width="50" height="70" as="geometry" />
        </mxCell>
        <mxCell id="pECEoWiWathn1sbl9UoU-6" value="Creare account agente immobiliare" style="ellipse;whiteSpace=wrap;html=1;" vertex="1" parent="1">
          <mxGeometry x="350" y="320" width="150" height="80" as="geometry" />
        </mxCell>
        <mxCell id="pECEoWiWathn1sbl9UoU-7" value="Modificare gli annunci dell&#39;immobile" style="ellipse;whiteSpace=wrap;html=1;" vertex="1" parent="1">
          <mxGeometry x="355" y="430" width="140" height="70" as="geometry" />
        </mxCell>
        <mxCell id="pECEoWiWathn1sbl9UoU-8" value="Cancellare gli annunci dell&#39;immobile" style="ellipse;whiteSpace=wrap;html=1;" vertex="1" parent="1">
          <mxGeometry x="360" y="540" width="140" height="70" as="geometry" />
        </mxCell>
        <mxCell id="pECEoWiWathn1sbl9UoU-9" value="login" style="ellipse;whiteSpace=wrap;html=1;" vertex="1" parent="1">
          <mxGeometry x="350" y="40" width="140" height="70" as="geometry" />
        </mxCell>
        <mxCell id="pECEoWiWathn1sbl9UoU-10" value="Creare account admin di supporto" style="ellipse;whiteSpace=wrap;html=1;" vertex="1" parent="1">
          <mxGeometry x="355" y="220" width="140" height="70" as="geometry" />
        </mxCell>
        <mxCell id="pECEoWiWathn1sbl9UoU-11" value="Modificare la password" style="ellipse;whiteSpace=wrap;html=1;" vertex="1" parent="1">
          <mxGeometry x="350" y="130" width="140" height="70" as="geometry" />
        </mxCell>
      </root>
    </mxGraphModel>
  </diagram>
</mxfile>
